<?xml version="1.0" encoding="UTF-8"?>
<svg xmlns="http://www.w3.org/2000/svg" xmlns:xlink="http://www.w3.org/1999/xlink" width="58px" height="58px" viewBox="0 0 58 57" version="1.1">
<g id="surface1">
<path style=" stroke:none;fill-rule:nonzero;fill:rgb(0%,0%,0%);fill-opacity:1;" d="M 19.710938 1.445312 C 14.976562 2.382812 11.394531 5.164062 9.175781 9.683594 C 8.089844 11.933594 7.792969 12.957031 7.566406 15.40625 L 7.410156 17.101562 L 6.410156 17.476562 C 4.894531 18.058594 2.855469 19.683594 1.902344 21.085938 C -0.316406 24.359375 -0.519531 28.988281 1.382812 32.507812 C 2.652344 34.84375 5.777344 37.339844 7.976562 37.738281 C 8.769531 37.894531 8.789062 37.875 8.925781 37.070312 C 9.128906 36.09375 9.0625 36.046875 7.65625 35.535156 C 4.847656 34.511719 2.785156 31.949219 2.21875 28.765625 C 1.992188 27.476562 2.015625 26.917969 2.3125 25.40625 C 2.945312 22.265625 4.734375 20.238281 7.90625 19.058594 C 8.789062 18.726562 9.515625 18.367188 9.539062 18.300781 C 9.539062 18.214844 9.582031 17.1875 9.628906 16.03125 C 9.742188 12.46875 11.101562 9.375 13.59375 6.878906 C 18.304688 2.203125 25.464844 1.871094 30.699219 6.078125 C 32.445312 7.480469 33.53125 8.863281 34.777344 11.265625 C 36.136719 13.871094 36.523438 14.070312 37.8125 12.824219 C 40.125 10.621094 43.320312 10.933594 45.085938 13.539062 C 45.789062 14.582031 46.082031 15.40625 46.355469 17.078125 C 46.535156 18.234375 46.648438 18.324219 48.371094 18.8125 C 50.183594 19.304688 52.335938 20.507812 53.242188 21.53125 C 54.875 23.355469 55.597656 26.007812 55.234375 28.855469 C 54.894531 31.75 53.21875 34.066406 50.570312 35.3125 C 49.867188 35.648438 49.253906 35.957031 49.210938 35.980469 C 49.164062 36.003906 49.253906 36.425781 49.414062 36.917969 L 49.683594 37.828125 L 50.816406 37.382812 C 52.96875 36.539062 55.214844 34.621094 56.140625 32.796875 C 57.839844 29.546875 57.726562 24.847656 55.894531 21.753906 C 54.691406 19.75 52.199219 17.921875 49.457031 17.054688 C 48.347656 16.699219 48.28125 16.632812 48.144531 15.742188 C 47.917969 14.359375 46.988281 12.46875 46.039062 11.488281 C 44.792969 10.21875 42.796875 9.351562 41.097656 9.351562 C 40.011719 9.351562 39.421875 9.507812 38.289062 10.0625 C 37.496094 10.441406 36.816406 10.664062 36.769531 10.554688 C 36.410156 9.484375 34.6875 7.125 33.167969 5.65625 C 29.5 2.003906 24.605469 0.488281 19.710938 1.445312 Z M 19.710938 1.445312 "/>
<path style=" stroke:none;fill-rule:nonzero;fill:rgb(0%,0%,0%);fill-opacity:1;" d="M 24.105469 20.441406 C 21.75 21.753906 19.53125 23 19.191406 23.222656 L 18.578125 23.601562 L 18.578125 28.566406 L 18.554688 33.507812 L 15.019531 35.402344 C 13.09375 36.449219 11.054688 37.5625 10.511719 37.894531 L 9.515625 38.519531 L 9.515625 44.488281 C 9.515625 49.917969 9.5625 50.5 9.921875 50.808594 C 10.582031 51.367188 19.234375 56.109375 19.597656 56.109375 C 19.777344 56.109375 21.929688 54.996094 24.355469 53.636719 L 28.75 51.167969 L 33.257812 53.636719 C 35.730469 54.996094 37.835938 56.109375 37.925781 56.109375 C 38.175781 56.109375 47.171875 51.1875 47.644531 50.808594 C 47.984375 50.5 48.03125 49.917969 48.03125 44.488281 L 48.03125 38.496094 L 47.191406 38.007812 C 46.71875 37.738281 44.699219 36.605469 42.707031 35.511719 L 39.082031 33.507812 L 39.015625 28.542969 L 38.96875 23.601562 L 38.109375 23.066406 C 36.429688 22 28.976562 18.035156 28.707031 18.058594 C 28.570312 18.058594 26.484375 19.125 24.105469 20.441406 Z M 32.21875 22.085938 C 34.050781 23.089844 35.570312 23.957031 35.570312 24.046875 C 35.570312 24.203125 28.976562 27.832031 28.707031 27.832031 C 28.410156 27.832031 21.976562 24.226562 21.976562 24.070312 C 21.976562 23.914062 28.5 20.261719 28.75 20.261719 C 28.820312 20.261719 30.359375 21.085938 32.21875 22.085938 Z M 24.152344 27.699219 L 27.527344 29.546875 L 27.59375 33.398438 C 27.640625 36.425781 27.59375 37.207031 27.367188 37.117188 C 27.210938 37.050781 25.648438 36.203125 23.902344 35.246094 L 20.730469 33.488281 L 20.664062 29.65625 C 20.640625 27.542969 20.640625 25.828125 20.683594 25.828125 C 20.730469 25.828125 22.292969 26.675781 24.152344 27.699219 Z M 36.882812 29.65625 L 36.816406 33.464844 L 33.417969 35.335938 C 31.558594 36.335938 29.953125 37.183594 29.859375 37.183594 C 29.746094 37.183594 29.679688 35.492188 29.679688 33.421875 L 29.679688 29.65625 L 33.144531 27.765625 C 35.027344 26.71875 36.65625 25.851562 36.769531 25.851562 C 36.863281 25.828125 36.90625 27.542969 36.882812 29.65625 Z M 22.90625 36.984375 C 24.695312 37.960938 26.257812 38.851562 26.347656 38.941406 C 26.460938 39.054688 24.96875 39.988281 23.0625 41.035156 L 19.597656 42.949219 L 18.125 42.148438 C 13.503906 39.632812 12.664062 39.121094 12.847656 38.941406 C 12.980469 38.808594 19.507812 35.179688 19.621094 35.179688 C 19.644531 35.179688 21.136719 35.980469 22.90625 36.984375 Z M 41.234375 36.984375 C 43.046875 37.960938 44.609375 38.851562 44.699219 38.964844 C 44.8125 39.054688 43.320312 39.988281 41.394531 41.058594 L 37.902344 42.972656 L 34.484375 41.058594 C 32.578125 40.011719 31.039062 39.074219 31.039062 39.007812 C 31.0625 38.875 37.542969 35.246094 37.835938 35.203125 C 37.902344 35.179688 39.421875 35.980469 41.234375 36.984375 Z M 27.640625 45.132812 L 27.640625 49.539062 L 25.308594 50.808594 C 24.039062 51.523438 22.453125 52.390625 21.816406 52.769531 L 20.617188 53.4375 L 20.617188 44.640625 L 24.082031 42.726562 C 25.964844 41.660156 27.550781 40.789062 27.59375 40.769531 C 27.617188 40.746094 27.640625 42.726562 27.640625 45.132812 Z M 15.179688 42.792969 L 18.578125 44.640625 L 18.578125 53.480469 L 18.078125 53.171875 C 17.785156 52.992188 16.152344 52.078125 14.453125 51.121094 L 11.328125 49.40625 L 11.328125 45.175781 C 11.328125 42.347656 11.394531 40.96875 11.578125 40.96875 C 11.691406 40.96875 13.320312 41.792969 15.179688 42.792969 Z M 33.53125 42.816406 L 36.816406 44.664062 L 36.882812 48.941406 C 36.90625 51.300781 36.863281 53.214844 36.769531 53.214844 C 36.703125 53.214844 35.070312 52.347656 33.144531 51.300781 L 29.679688 49.386719 L 29.679688 45.175781 C 29.679688 41.949219 29.746094 40.96875 29.972656 40.96875 C 30.109375 40.992188 31.71875 41.816406 33.53125 42.816406 Z M 45.992188 45.242188 L 45.992188 49.539062 L 42.59375 51.390625 C 40.734375 52.390625 39.171875 53.214844 39.105469 53.214844 C 39.035156 53.214844 38.96875 51.277344 38.96875 48.917969 L 38.96875 44.640625 L 42.320312 42.816406 C 44.15625 41.792969 45.71875 40.96875 45.832031 40.96875 C 45.925781 40.96875 45.992188 42.90625 45.992188 45.242188 Z M 45.992188 45.242188 "/>
</g>
</svg>
